<?xml version="1.0" encoding="UTF-8"?>
<svg id="Layer_2" data-name="Layer 2" xmlns="http://www.w3.org/2000/svg" viewBox="0 0 304.27 360">
  <defs>
    <style>
      .cls-1 {
        fill: #231f20;
      }
    </style>
  </defs>
  <path class="cls-1" d="M114.24,0v3.9h-9.47c-18.39,0-32.88,14.49-32.88,32.88v144.89L222.35,36.78c5.57-5.57,8.36-11.15,8.36-16.16,0-10.03-11.14-16.72-23.96-16.72h-9.47V0h90.28v3.9h-10.03c-17.83,0-28.42,14.49-46.81,32.88l-107,103.09,123.72,183.35c12.26,18.39,28.98,32.88,46.81,32.88h10.03v3.9h-69.66L101.42,161.61l-29.53,28.42v133.19c0,18.39,14.49,32.88,32.88,32.88h9.47v3.9H0v-3.9h9.47c18.39,0,32.88-14.49,32.88-32.88V36.78C42.35,18.39,27.86,3.9,9.47,3.9H0V0h114.24Z"/>
</svg>